<?xml version="1.0" encoding="UTF-8"?>
<svg width="140px" height="66px" viewBox="0 0 140 66" version="1.1" xmlns="http://www.w3.org/2000/svg" xmlns:xlink="http://www.w3.org/1999/xlink" style="background: #000000;">
    <!-- Generator: Sketch 49.3 (51167) - http://www.bohemiancoding.com/sketch -->
    <title>am-logo-black-bg</title>
    <desc>Created with Sketch.</desc>
    <defs></defs>
    <g id="am-logo-black-bg" stroke="none" stroke-width="1" fill="none" fill-rule="evenodd">
        <g id="Group" fill="#FFFFFF">
            <polygon id="Path" points="130.243738 -1.11022302e-16 124.05909 -1.11022302e-16 107.543779 41.3027754 110.630304 49.0323421"></polygon>
            <polygon id="Path" points="80 66.2135425 85.7389817 66.2135425 85.7389817 46.3532529 80 32"></polygon>
            <polygon id="Path" points="125 66.2135425 130.736497 66.2135425 130.736497 32 125 46.3532529"></polygon>
            <polygon id="Path" points="36.3364983 -1.11022302e-16 52.8329556 41.2503126 26.0560128 41.2503126 32.7829664 24.4354295 29.6728965 16.6590045 9.9404995 66 16.1614728 66 23.747009 47.0269902 55.1436267 47.0269902 62.7349979 66 68.9509697 66 42.5574716 -1.11022302e-16"></polygon>
            <polygon id="Path" points="41.575407 37.9510211 47.7955467 37.9510211 32.6169721 0 26.3951653 0 2.17229751 60.5675891 0.0250072622 65.9358147 0 66 6.22097326 66 29.5069023 7.7755914"></polygon>
            <polygon id="Shape" fill-rule="nonzero" points="52.8406891 50 25.3566947 50 23 55.8959906 48.8504733 55.8959906 52.8917367 66 59.2411996 66 52.8406891 50.004254"></polygon>
            <polygon id="Path" points="71.2402464 -1.11022302e-16 71.2402464 66 76.9734295 66 76.9734295 14.4400268 97.4690827 66 103.652902 66 77.4199236 -1.11022302e-16"></polygon>
            <polygon id="Path" points="140.3646 -1.11022302e-16 134.127549 -1.11022302e-16 110.772673 58.2244086 87.4186328 -1.11022302e-16 81.1807459 -1.11022302e-16 107.654565 66 113.891616 66 134.57144 14.4400268 134.57144 66 140.3646 66"></polygon>
        </g>
    </g>
</svg>